<?xml version="1.0" encoding="utf-8"?>
<svg xmlns="http://www.w3.org/2000/svg" height="48" width="48" viewBox="0 0 48 48">
  <g>
    <path id="path1" transform="rotate(0,24,24) translate(12.1476472616196,11) scale(0.8125,0.8125)  " fill="#FFFFFF" d="M25.172009,16.398994C24.49397,16.400993 23.648021,16.485992 23.117015,16.917999 22.622996,17.32 22.71699,18.056999 22.71699,18.622993L22.71699,20.321999C22.71699,20.790993 22.583995,21.529999 23.284007,21.317993 24.115003,21.067993 24.989026,20.533997 25.693005,20.039993 26.112012,19.741997 26.334973,19.466995 26.466992,19.221992 26.597974,18.974998 26.648999,18.739998 26.651013,18.461998 26.656018,17.739998 26.234998,16.393997 25.305982,16.399994 25.261975,16.399994 25.217969,16.398994 25.172009,16.398994z M5.6430082,10.265999C5.9359769,10.271996 6.1889676,10.395996 6.2290072,10.765999 6.3049959,11.459999 5.3720121,11.522995 4.9169945,11.664993 4.6409935,11.750999 4.3839745,11.843994 4.1510028,11.941994 3.2219865,12.331993 2.6779799,12.803993 2.6779799,13.309998 2.6779799,14.665993 6.5650057,15.765999 11.359014,15.765999 16.153024,15.765999 20.039012,14.665993 20.039012,13.309998 20.039012,12.868996 19.627999,12.454994 18.909005,12.098999 18.680978,11.983994 18.422982,11.877998 18.136971,11.776993 17.849008,11.674995 17.532968,11.579994 17.191964,11.492996 16.761971,11.382996 16.336984,11.112 16.630013,10.608994 16.883004,10.170998 17.326974,10.281998 17.739999,10.370995 17.989999,10.422997 18.232003,10.479996 18.466988,10.539993 18.815988,10.626999 19.148019,10.720993 19.463021,10.820999 21.458995,11.456993 22.695994,12.325996 22.716014,13.286995 22.716014,13.286995 22.716014,13.651993 22.71699,14.237 23.487986,14.051994 24.396008,13.879997 25.305982,13.875999 25.776013,13.877998 26.252026,13.920998 26.739026,14.081993 27.216992,14.239998 27.747024,14.558998 28.083999,15.112999 28.615004,15.991997 29.164992,17.118996 29.175002,18.461998 29.177016,19.095993 29.034011,19.775993 28.693984,20.410995 28.354995,21.045998 27.831984,21.619995 27.144971,22.102997 26.19502,22.772995 25.344006,23.157997 24.724988,23.434998 24.094983,23.705994 23.758984,23.903 23.71699,23.971992 23.682994,24.017998 23.667979,24.006996 23.627025,24.213997 23.601024,24.370995 23.568004,24.528 23.489024,24.717995 23.411021,24.901993 23.286021,25.151993 22.966014,25.382996 22.778026,25.518997 22.511973,25.610992 22.263011,25.623993 21.292979,28.299995 18.831002,30.470993 15.638985,31.509995 14.318,31.939995 12.872992,32 11.359014,32 9.4879808,32 7.721012,31.814995 6.1649808,31.174995 2.5050062,29.665993 6.6283974E-08,26.612 0,23.089996L0,13.286995C0.023010331,12.25 1.46399,11.318993 3.744997,10.673996 4.0150165,10.595993 4.297976,10.523994 4.5899681,10.455994 4.8349633,10.398994 5.0869774,10.344994 5.3439969,10.294998 5.4439725,10.274994 5.5459623,10.264 5.6430082,10.265999z M9.1850023,0C9.2299852,0.026992798 9.2769822,0.054992676 9.3230027,0.080993652 11.330999,1.2659988 13.235969,3.8049927 13.183967,6.2569962 13.16297,7.2019958 12.859015,8.1239929 12.875983,9.0709991 12.893012,10.125 13.53498,11.265999 13.331,12.288994 13.260993,12.641998 13.091987,12.979996 12.76197,13.295998 12.29096,13.744995 11.221014,14.422997 10.550969,14.295998 9.2580003,14.051994 9.3889818,11.696999 9.5360154,10.768997 9.8909959,8.5389938 11.213018,5.8149948 10.492986,2.7149963 10.386968,2.2889938 10.237004,1.8619995 10.039983,1.4389954 9.7879686,0.91499329 9.4959764,0.44199371 9.1850023,0z" />
  </g>
</svg>