<?xml version="1.0" encoding="utf-8"?>
<svg xmlns="http://www.w3.org/2000/svg" height="48" width="48" viewBox="0 0 48 48">
  <g>
    <path id="path1" transform="rotate(0,24,24) translate(11,11.7129631975287) scale(0.812500242143942,0.812500242143942)  " fill="#FFFFFF" d="M11.085055,21.467269C12.770062,21.498275 14.00008,22.898254 14.171071,23.609244 16.318086,32.499147 0,29.887176 0,29.887176 4.6330221,29.887176 5.7730434,25.937223 7.1820481,23.983249 8.567066,22.064263 9.9320638,21.445266 11.085055,21.467269z M30.946192,0.00051002255C31.210171,-0.0064938265 31.442196,0.058507901 31.624174,0.2035105 32.348177,0.78550496 31.995178,2.4304759 30.831171,3.8814639L20.358118,19.640294C19.192127,21.090274 17.076086,21.323274 15.62808,20.161285 14.174092,18.999295 13.940082,16.881322 15.10409,15.430333L28.205179,1.7774831C29.077162,0.68850585,30.155172,0.021505744,30.946192,0.00051002255z" />
  </g>
</svg>