<?xml version="1.0" encoding="utf-8"?>
<svg xmlns="http://www.w3.org/2000/svg" height="48" width="48" viewBox="0 0 48 48">
  <g>
    <path id="path1" transform="rotate(0,24,24) translate(11,11) scale(0.8125,0.8125)  " fill="#FFFFFF" d="M15.200012,25.299997L16.899963,25.899996 16.899963,30.399994 16.099976,32 15.200012,30.599998z M12.399963,23.899996L13.899963,24.799997C11.599976,25.699999,13.599976,27.199997,13.599976,27.199997L13.599976,28.599998C9.7999878,25.899996,12.399963,23.899996,12.399963,23.899996z M15,18.799997L16.899963,19.1 16.899963,20.699999 15,20.299997z M10.899963,17.399999L13.099976,18.199999C8.8999634,20.199999 15.5,22.000002 15.5,22.000002 18.899963,23.299997 19.599976,23.899996 19.599976,23.899996 22.700012,26.5 18.399963,28.799995 18.399963,28.799995L18.399963,27.299995C22.099976,25.299997 13.599976,22.899996 13.599976,22.899996 6.5999756,19.899996 10.899963,17.399999 10.899963,17.399999z M21.399963,9.7999981C24.799988,9.7999981 25.099976,11.7 25.099976,11.7 25.399963,14.099997 21,15.799997 21,15.799997 21,15.499998 19,14.799997 19,14.799997 23.899963,13.499999 22.899963,11.799998 22.899963,11.799998 22.099976,10.7 21.099976,11.299998 21.099976,11.299998 19.299988,14.299998 18.700012,11.7 18.700012,11.7 18.700012,9.9999989 20.299988,9.9000004 20.299988,9.9000004 20.700012,9.9000004 21.099976,9.7999981 21.399963,9.7999981z M10.200012,9.6999997C11.200012,9.6999997 12,9.9000004 12,9.9000004 14,10.4 13.200012,12.299998 13.200012,12.299998 12.200012,13.2 11.099976,11.299998 11.099976,11.299998 10.200012,10.9 9.2000122,11.599997 9.2000122,11.599997 8.7000122,12.4 9.5999756,13.999999 14.899963,15.299997 20.200012,16.599996 21.700012,17.799997 21.700012,17.799997 24,20.299997 19.899963,22.1 19.899963,22.1L18.200012,21.199999C24.200012,18.6 15.899963,17.099996 15.899963,17.099996 8.7999878,15.899999 7,12.599997 7,12.599997 6.5999756,10.2 8.5999756,9.6999997 10.200012,9.6999997z M0,0.70000074L9.2000122,0.70000074C11.299988,0.7000008,11.299988,1.9000014,11.299988,1.9000015L11.5,3.5999981C11.599976,5.4999994,13.599976,5.9000009,13.599976,5.9000009L13.599976,8.4000004C0.59997559,8.1999997,0.59997559,3.9000011,0.59997559,3.9000011L8.0999756,3.9000011 8.0999756,2.5000001 0,2.5000001z M22.609203,0.69435785C22.67079,0.69502018,22.734364,0.69687573,22.799988,0.70000074L32,0.70000074 32,2.5999986 23.899963,2.5999986 23.899963,3.9000011 31.399963,3.9000011C31.399963,3.9000011,31.399963,8.1999997,18.399963,8.4000004L18.399963,5.7999986C18.399963,5.7999986,20.399963,5.4999994,20.5,3.4999996L20.700012,1.7999992C20.700012,1.7999992,20.700012,0.67382673,22.609203,0.69435785z M15.899963,0C17.200012,1.425326E-07 18.299988,1.0999985 18.299988,2.4000016 18.299988,3.4000011 17.700012,4.2000006 16.899963,4.5999979L16.799988,4.5999979 16.799988,14.099997 15,13.799998 15,4.7000001 14.899963,4.7000001C14,4.2999991 13.399963,3.4999996 13.399963,2.5000001 13.5,1.0999985 14.599976,1.425326E-07 15.899963,0z" />
  </g>
</svg>