<?xml version="1.0" encoding="utf-8"?>
<svg xmlns="http://www.w3.org/2000/svg" height="48" width="48" viewBox="0 0 48 48">
  <g>
    <path id="path1" transform="rotate(0,24,24) translate(11,11.4875003099442) scale(0.8125,0.8125)  " fill="#FFFFFF" d="M22.700012,27.3C23.700012,27.3 24.400024,28.100003 24.400024,29.100003 24.400024,30.100003 23.600037,30.8 22.700012,30.8 21.700012,30.8 21,29.999997 21,29.100003 20.900024,28.100003 21.700012,27.3 22.700012,27.3z M16,27.3C17,27.3 17.700012,28.100003 17.700012,29.100003 17.700012,30.100003 16.900024,30.8 16,30.8 15,30.8 14.200012,29.999997 14.200012,29.100003 14.300049,28.100003 15,27.3 16,27.3z M25.5,22.100003C26.5,22.100003 27.300049,22.900006 27.300049,23.8 27.300049,24.8 26.5,25.499997 25.5,25.499997 24.5,25.499997 23.800049,24.699994 23.800049,23.8 23.800049,22.8 24.5,22.100003 25.5,22.100003z M19.200012,22.100003C20.200012,22.100003 20.900024,22.900006 20.900024,23.8 20.900024,24.8 20.100037,25.499997 19.200012,25.499997 18.200012,25.499997 17.400024,24.699994 17.400024,23.8 17.400024,22.8 18.200012,22.100003 19.200012,22.100003z M12.5,22.100003C13.5,22.100003 14.300049,22.900006 14.300049,23.8 14.300049,24.8 13.5,25.499997 12.5,25.499997 11.5,25.499997 10.800049,24.699994 10.800049,23.8 10.700012,22.8 11.5,22.100003 12.5,22.100003z M15.900024,0C19.5,1.0679378E-07 22.600037,2.6999968 23.600037,6.4999994 24.200012,6.3000025 24.800049,6.3000025 25.400024,6.3000025 29.100037,6.3000025 32,9.300002 32,12.900008 32,15.300001 30.800049,17.300002 28.900024,18.499997 28.200012,19.100003 27.200012,19.499997 26.200012,19.499997 25.900024,19.499997 25.700012,19.600003 25.400024,19.600003 25.100037,19.600003 24.900024,19.600003 24.600037,19.499997L7.5,19.499997C7.2000122,19.499997 7,19.600003 6.7000122,19.600003 3,19.499997 0,16.699996 0,13.199996 0,9.6999959 3,6.8000025 6.6000366,6.8000025 7.1000366,6.8000025 7.6000366,6.9000086 8.1000366,6.9999994 9,2.9999997 12.100037,1.0679378E-07 15.900024,0z" />
  </g>
</svg>