<?xml version="1.0" encoding="utf-8"?>
<svg xmlns="http://www.w3.org/2000/svg" height="48" width="48" viewBox="0 0 48 48">
  <g>
    <path id="path1" transform="rotate(0,24,24) translate(12.21875,11) scale(0.8125,0.8125)  " fill="#FFFFFF" d="M14.5,23.699997C14.799988,23.699997,15,23.899994,15,24.199997L15,26.599991 16.700012,24.899994C16.899963,24.699997 17.200012,24.699997 17.399963,24.899994 17.599976,25.099991 17.599976,25.399994 17.399963,25.599991L15.700012,27.300003 18.099976,27.300003C18.399963,27.300003 18.599976,27.5 18.599976,27.800003 18.599976,28.099991 18.399963,28.300003 18.099976,28.300003L15.700012,28.300003 17.399963,30C17.599976,30.199997 17.599976,30.5 17.399963,30.699997 17.200012,30.899994 16.899963,30.899994 16.700012,30.699997L15,29.099991 15,31.5C15,31.800003 14.799988,32 14.5,32 14.200012,32 14,31.800003 14,31.5L14,29.099991 12.299988,30.800003C12.099976,31 11.799988,31 11.599976,30.800003 11.399963,30.599991 11.399963,30.300003 11.599976,30.099991L13.299988,28.399994 10.899963,28.399994C10.599976,28.399994 10.399963,28.199997 10.399963,27.899994 10.399963,27.599991 10.599976,27.399994 10.899963,27.399994L13.299988,27.399994 11.599976,25.699997C11.399963,25.5 11.399963,25.199997 11.599976,25 11.799988,24.800003 12.099976,24.800003 12.299988,25L14,26.699997 14,24.300003C14,24,14.200012,23.699997,14.5,23.699997z M5.7000122,19.599991C6,19.599991,6.2000122,19.800003,6.2000122,20.099991L6.2000122,22.5 7.8999634,20.800003C8.0999756,20.599991 8.3999634,20.599991 8.5999756,20.800003 8.7999878,21 8.7999878,21.300003 8.5999756,21.5L6.8999634,23.199997 9.2999878,23.199997C9.5999756,23.199997 9.7999878,23.399994 9.7999878,23.699997 9.7999878,24 9.5999756,24.199997 9.2999878,24.199997L6.8999634,24.199997 8.7000122,26C8.8999634,26.199997 8.8999634,26.5 8.7000122,26.699997 8.5,26.899994 8.2000122,26.899994 8,26.699997L6.2000122,25 6.2000122,27.399994C6.2000122,27.699997 6,27.899994 5.7000122,27.899994 5.3999634,27.899994 5.2000122,27.699997 5.2000122,27.399994L5.2000122,25 3.5,26.699997C3.2999878,26.899994 3,26.899994 2.7999878,26.699997 2.5999756,26.5 2.5999756,26.199997 2.7999878,26L4.5,24.300003 2.0999756,24.300003C1.7999878,24.300003 1.5999756,24.099991 1.5999756,23.800003 1.5999756,23.5 1.7999878,23.300003 2.0999756,23.300003L4.5,23.300003 2.7999878,21.599991C2.5999756,21.399994 2.5999756,21.099991 2.7999878,20.899994 3,20.699997 3.2999878,20.699997 3.5,20.899994L5.2000122,22.599991 5.2000122,20.199997C5.2000122,19.800003,5.5,19.599991,5.7000122,19.599991z M23.700012,18.300003C24,18.300003,24.200012,18.5,24.200012,18.800003L24.200012,21.199997 25.899963,19.5C26.099976,19.300003 26.399963,19.300003 26.599976,19.5 26.799988,19.699997 26.799988,20 26.599976,20.199997L24.899963,21.899994 27.299988,21.899994C27.599976,21.899994 27.799988,22.099991 27.799988,22.399994 27.799988,22.699997 27.599976,22.899994 27.299988,22.899994L24.899963,22.899994 26.599976,24.599991C26.799988,24.800003 26.799988,25.099991 26.599976,25.300003 26.399963,25.5 26.099976,25.5 25.899963,25.300003L24.200012,23.599991 24.200012,26C24.200012,26.300003 24,26.5 23.700012,26.5 23.399963,26.5 23.200012,26.300003 23.200012,26L23.200012,23.599991 21.5,25.300003C21.299988,25.5 21,25.5 20.799988,25.300003 20.599976,25.099991 20.599976,24.800003 20.799988,24.599991L22.5,22.899994 20,22.899994C19.700012,22.899994 19.5,22.699997 19.5,22.399994 19.5,22.099991 19.700012,21.899994 20,21.899994L22.399963,21.899994 20.700012,20.199997C20.5,20 20.5,19.699997 20.700012,19.5 20.899963,19.300003 21.200012,19.300003 21.399963,19.5L23.099976,21.199997 23.099976,18.800003C23.200012,18.5,23.399963,18.300003,23.700012,18.300003z M14.399963,0C17.700012,0 20.399963,2.5 21.399963,5.8999939 21.899963,5.8000031 22.5,5.6999969 23,5.6999969 26.299988,5.6999969 29,8.3999939 29,11.699997 29,13.800003 27.899963,15.699997 26.200012,16.800003 25.5,17.300003 24.700012,17.699997 23.700012,17.699997 23.5,17.699997 23.200012,17.800003 22.899963,17.800003L22.200012,17.800003 6.7999878,17.800003 6,17.800003C2.7000122,17.800003 0,15.199997 0,12 0,8.8000031 2.7000122,6.1999969 6,6.1999969 6.5,6.1999969 6.8999634,6.3000031 7.2999878,6.3000031 8.2000122,2.6999969 11,0 14.399963,0z" />
  </g>
</svg>