<?xml version="1.0" encoding="utf-8"?>
<svg xmlns="http://www.w3.org/2000/svg" height="48" width="48" viewBox="0 0 48 48">
  <g>
    <path id="path1" transform="rotate(0,24,24) translate(12.1744690537453,11) scale(0.8125,0.8125)  " fill="#FFFFFF" d="M18.740961,29.009003C19.538996,29.009003 20.236994,29.707001 20.236994,30.50499 20.236994,31.302002 19.538996,32 18.740961,32 17.943964,32 17.245966,31.302002 17.245966,30.50499 17.346003,29.606995 17.943964,29.009003 18.740961,29.009003z M13.257992,29.009003C14.055965,29.009003 14.753963,29.707001 14.753963,30.50499 14.753963,31.302002 14.055965,32 13.257992,32 12.460995,32 11.762997,31.302002 11.762997,30.50499 11.762997,29.606995 12.460995,29.009003 13.257992,29.009003z M21.133967,24.722992C21.930962,24.722992 22.62896,25.42099 22.62896,26.218002 22.62896,27.015991 21.930962,27.712997 21.133967,27.712997 20.335993,27.712997 19.638971,27.015991 19.638971,26.218002 19.638971,25.320999 20.335993,24.722992 21.133967,24.722992z M15.849971,24.722992C16.647944,24.722992 17.346003,25.42099 17.346003,26.218002 17.346003,27.015991 16.647944,27.712997 15.849971,27.712997 15.052974,27.712997 14.354976,27.015991 14.354976,26.218002 14.454951,25.320999 15.052974,24.722992 15.849971,24.722992z M10.268003,24.722992C11.064999,24.722992 11.762997,25.42099 11.762997,26.218002 11.762997,27.015991 11.064999,27.712997 10.268003,27.712997 9.4699679,27.712997 8.7719699,27.015991 8.7719699,26.218002 8.8720065,25.320999 9.4699679,24.722992 10.268003,24.722992z M26.317986,11.664001L27.51397,12.360992C27.912956,12.660004 28.111992,13.158997 27.812981,13.656998 27.613945,14.056 27.214958,14.155991 26.815971,14.056L26.815971,13.955994C26.51696,13.457993,26.217949,13.05899,25.918999,12.660004L25.818962,12.560989 25.918999,12.360992C26.018974,12.162003,26.217949,11.962997,26.317986,11.664001z M26.815971,8.173996L28.211966,8.173996C28.709952,8.173996 29.108999,8.572998 29.108999,9.17099 29.108999,9.6699982 28.709952,10.069 28.111992,10.069L26.715996,10.069C26.715996,9.7689972 26.815971,9.4700012 26.815971,9.17099 26.915947,8.871994 26.815971,8.572998 26.815971,8.173996z M13.158993,6.4799957C16.148981,6.4799957 18.641962,8.772995 19.538996,11.862991 20.036982,11.763 20.535944,11.664001 21.033991,11.664001 24.024956,11.664001 26.51696,14.155991 26.51696,17.145996 26.51696,19.139999 25.519951,20.834991 23.92498,21.731995 23.326958,22.231003 22.529961,22.529999 21.631952,22.529999L20.933954,22.529999 20.236994,22.529999 6.1809674,22.529999 5.4829694,22.529999C2.4920035,22.529999 -9.9604222E-08,20.136993 0,17.246002 -9.9604222E-08,14.354996 2.4920035,11.962997 5.4829694,11.962997 5.8809796,11.962997 6.2799665,11.962997 6.6789528,12.061996 7.4769875,8.871994 10.06799,6.4799957 13.158993,6.4799957z M27.314995,4.2870026C27.613945,4.2870026 27.912956,4.4859924 28.111992,4.7850037 28.310965,5.2839966 28.211966,5.7819977 27.712944,6.0809937L26.416985,6.7789917C26.217949,6.1809998,25.918999,5.6819916,25.519951,5.1839905L26.915947,4.3860016C27.014946,4.2870026,27.214958,4.2870026,27.314995,4.2870026z M13.357967,3.7879944C13.55798,3.7879944,13.656979,3.7879944,13.85699,3.8880005L15.152949,4.6849976C15.052974,4.8849945,14.852962,5.0839996,14.753963,5.2839966L14.653987,5.4830017 14.354976,5.4830017C13.955989,5.3829956,13.55798,5.3829956,13.158993,5.3829956L12.859982,5.3829956 12.659969,5.3829956 12.659969,5.2839966C12.460995,4.9839935 12.460995,4.5859985 12.659969,4.2870026 12.760006,3.9879913 13.058956,3.8880005 13.357967,3.7879944z M20.236994,3.3889923L20.335993,3.3889923C23.426994,3.4889984 25.918999,6.0809937 25.818962,9.17099 25.818962,10.167999 25.519951,11.065002 25.021965,11.862991L25.021965,11.962997 24.92199,11.862991C23.824944,11.065002,22.429985,10.567001,20.933954,10.567001L20.236994,10.567001C19.338984,8.2740021,17.644953,6.5789948,15.650996,5.7819977L15.55096,5.7819977 15.750972,5.5829926C16.74798,4.1869965,18.342951,3.3889923,20.236994,3.3889923z M24.522942,1.29599C24.722954,1.29599 24.92199,1.29599 25.021965,1.3959961 25.419975,1.6949921 25.619988,2.2929993 25.320976,2.6920013L24.522942,3.9879913C24.024956,3.5889893,23.525993,3.2899933,22.927971,2.9909973L23.725945,1.6949921C23.92498,1.3959961,24.223991,1.29599,24.522942,1.29599z M16.448969,0.89700317C16.74798,0.89700317,17.046991,1.0970001,17.245966,1.3959961L17.943964,2.7910004C17.346003,2.9909973,16.846979,3.2899933,16.348993,3.6880035L15.650996,2.3929901C15.451961,1.8939972 15.55096,1.3959961 16.049982,1.0970001 16.148981,0.99699402 16.248957,0.89700317 16.448969,0.89700317z M20.435968,0C21.033991,0,21.432978,0.39900208,21.432978,0.99699402L21.432978,2.4919891C21.133967,2.3929901,20.834955,2.3929901,20.535944,2.3929901L19.638971,2.3929901 19.638971,0.89700317C19.538996,0.39900208,19.937983,0,20.435968,0z" />
  </g>
</svg>