<?xml version="1.0" encoding="utf-8"?>
<svg xmlns="http://www.w3.org/2000/svg" height="48" width="48" viewBox="0 0 48 48">
  <g>
    <path id="path1" transform="rotate(0,24,24) translate(11,11.8531251549721) scale(0.8125,0.8125)  " fill="#FFFFFF" d="M11.799988,12.900003L17.699997,12.900003 22.699997,21.400009 17.899994,21.400009 22.299988,29.9 10.299988,17.900007 14.799988,17.900007z M15.899994,0C19.5,-6.1891114E-08 22.599991,2.6999989 23.599991,6.5000044 24.199997,6.2999921 24.799988,6.2999921 25.399994,6.2999921 29.099991,6.2999921 32,9.2999945 32,12.900003 32,15.299998 30.799988,17.299999 28.899994,18.500013 28.199997,19.100004 27.199997,19.500013 26.199997,19.500013 25.899994,19.500013 25.699997,19.600004 25.399994,19.600004 25.099991,19.600004 24.899994,19.600004 24.599991,19.500013L23.199997,19.500013 18.5,11.599999 9.3999939,11.599999 12.399994,16.600002 7,16.600002 10,19.600004 7.5,19.600004C7.1999969,19.600004 7,19.70001 6.6999969,19.70001 3,19.500013 0,16.700008 0,13.200007 0,9.7000037 3,6.7999926 6.5999908,6.7999926 7.0999908,6.7999926 7.5999908,6.8999987 8.0999908,7.0000048 9,3.000002 12.099991,-6.1891114E-08 15.899994,0z" />
  </g>
</svg>