<?xml version="1.0" encoding="utf-8"?>
<svg xmlns="http://www.w3.org/2000/svg" height="48" width="48" viewBox="0 0 48 48">
  <g>
    <path id="path1" transform="rotate(0,24,24) translate(14.9812515400348,11) scale(0.812499903142464,0.812499903142464)  " fill="#FFFFFF" d="M0.69998219,5.4999988L7.4,7.9999978 14.599987,7.9999978 21.500018,5.4999988 22.199999,7.3000014 14.599987,10.000005 14.599987,19.500004 20.300005,31.099991 18.599991,32.000002 12.50001,19.599994 9.500008,19.599994 3.3999964,32.000002 1.6999828,31.199997 7.4,19.599994 7.4,10.000005 0,7.2000029z M11.000009,0C12.699993,0 14.099987,1.4000012 14.099987,3.0999977 14.099987,4.8000018 12.699993,6.2000029 11.000009,6.2000029 9.2999958,6.2000029 7.7999939,4.9000003 7.7999939,3.0999977 7.7999939,1.4000012 9.1999887,0 11.000009,0z" />
  </g>
</svg>