<?xml version="1.0" encoding="utf-8"?>
<svg xmlns="http://www.w3.org/2000/svg" height="48" width="48" viewBox="0 0 48 48">
  <g>
    <path id="path1" transform="rotate(0,24,24) translate(11,11.3250004649162) scale(0.8125,0.8125)  " fill="#FFFFFF" d="M3.2999878,20.999992L3.2999878,31.099993 0,31.099993 0,24.300009z M7.4000244,16.900018L7.4000244,31.099993 4.0999756,31.099993 4.0999756,20.30001z M16.400024,16.499994L18.599976,18.700004 19.700012,17.599998 19.700012,31.099993 16.400024,31.099993z M23.799988,13.600001L23.799988,31.199999 20.5,31.199999 20.5,16.900018z M11.5,12.800013L11.5,31.099993 8.2000122,31.099993 8.2000122,16.1z M12.299988,12.400019L15.599976,15.700006 15.599976,31.099993 12.299988,31.099993z M27.900024,9.499996L27.900024,31.199999 24.599976,31.199999 24.599976,12.800013z M28.700012,9.1000021L29,9.1000021 32,12.100001 32,31.099993 28.700012,31.099993z M31.400024,0L31.099976,7.2000096 28.900024,4.9999983 18.200012,15.700006 17.900024,15.999993 11.700012,9.8000143 0.70001221,20.80001 0.70001221,15.800012 11.599976,4.8000167 17.900024,11.100002 26.400024,2.6000052 24.200012,0.4000244z" />
  </g>
</svg>