<?xml version="1.0" encoding="utf-8"?>
<svg xmlns="http://www.w3.org/2000/svg" height="48" width="48" viewBox="0 0 48 48">
  <g>
    <path id="path1" transform="rotate(0,24,24) translate(11,13.1023303927232) scale(0.812500048429703,0.812500048429703)  " fill="#FFFFFF" d="M4.9962461,4.5249524E-05C5.2250121,-0.0014862569 5.458545,0.035804521 5.6951058,0.12014669 6.0410951,0.24319285 6.3550871,0.47719993 6.6530879,0.70217409 7.2000783,1.1162334 7.7340844,1.5492137 8.2520683,1.9972084 8.4060734,2.1301421 8.5030725,2.3361951 8.6030624,2.5222289 8.7010687,2.7042345 8.7010687,2.8562108 8.5010736,3.0232021 8.365074,3.1362382 8.3010633,3.3691467 8.2660759,3.5601856 8.2270744,3.776126 8.1380709,3.9001488 7.9250763,3.9241964 7.6190799,3.9602069 7.4310787,4.1281742 7.3610876,4.421141 7.3010753,4.6682095 7.2130788,4.8342241 6.9050835,4.8352007 6.6370967,4.8361772 6.4600966,5.0361265 6.3181002,5.2591475 6.1080959,5.585195 5.5851066,5.5641989 5.3861039,5.2281422 5.0331109,4.6291474 4.6121104,4.5821504 4.0881145,5.0451597 3.905118,5.2061695 3.6621247,5.304191 3.4391196,5.4151524 2.9071284,5.6791886 2.6741293,6.104112 2.8281343,6.679181 2.9621356,7.1811308 3.1491299,7.6691641 3.3341253,8.1560992 3.7041164,9.1261853 4.1671236,10.057086 4.7831138,10.889111 5.280102,11.563179 5.8470972,12.193057 6.4390858,12.788146 7.6350863,13.991139 8.5430658,15.381144 9.251065,16.911041 9.3970592,17.226101 9.5190523,17.553125 9.6480482,17.875023 9.8210504,18.308124 10.137056,18.580095 10.431044,18.542131 10.870035,18.486103 11.132041,18.188131 11.18804,17.680078 11.301029,16.662142 11.541033,15.674111 12.027035,14.771042 12.582021,13.743094 13.371013,12.959165 14.471006,12.479066 15.551987,12.008122 16.673968,11.898137 17.823966,11.925115 18.197953,11.934148 18.573956,11.994084 18.944955,12.052067 19.465945,12.132145 19.88194,11.784124 19.868939,11.26008 19.86694,11.192088 19.865933,11.122142 19.847943,11.057079 19.529938,9.8811845 19.856931,8.8361482 20.518925,7.8700904 21.178921,6.9061083 22.075915,6.2202 23.166907,5.8251833 23.852887,5.5771383 24.568883,5.3922032 25.286877,5.2562179 26.174866,5.0881285 27.07685,5.0871519 27.971844,5.2761153 29.226834,5.5411281 30.177827,6.2371677 30.850808,7.3121113 31.5728,8.4621276 31.864804,9.7390956 31.975796,11.084179 32.039807,11.868109 31.973798,12.629089 31.813796,13.381159 31.676802,14.02715 31.367801,14.609055 30.962807,15.142133 30.199815,16.148107 29.145827,16.714142 27.993848,17.135038 27.776854,17.214138 27.543855,17.253078 27.31786,17.309109 26.957864,17.398098 26.740855,17.625025 26.625867,17.97805 26.188859,19.319103 25.601876,20.593021 24.788882,21.744989 24.249886,22.509022 23.686888,23.272077 23.035895,23.940042 22.008914,24.99399 20.804934,25.836025 19.383944,26.283043 18.364959,26.603964 17.796958,26.795002 16.066981,26.748005 16.063975,26.774006 16.061976,26.79903 16.058986,26.825031 14.907998,26.709064 13.756003,26.597982 12.606023,26.477011 12.029033,26.415975 11.454028,26.279014 10.879038,26.285972 10.287049,26.293053 9.6940534,26.425009 9.1050556,26.520956 8.869066,26.560018 8.6380651,26.642048 8.4090641,26.717976 7.9790767,26.862018 7.6630857,26.627035 7.3450811,26.407064 6.1960919,25.612026 5.1931131,24.648044 4.3131183,23.577007 3.3331335,22.383047 2.5641299,21.05603 2.1361413,19.548107 1.846151,18.524065 1.474146,17.522119 1.2011543,16.495027 0.95715371,15.581094 0.78116081,14.648117 0.6071516,13.718071 0.46916795,12.979062 0.36716411,12.232119 0.26915801,11.486154 0.20316452,10.989086 0.15316204,10.487137 0.12916007,9.986164 0.072169308,8.7771882 -0.010837551,7.5671143 0.0011707891,6.3581385 0.012172439,5.2501143 0.18616642,4.1441654 0.79016361,3.1861645 1.1261582,2.6541861 1.5581447,2.1692041 2.0131417,1.7302425 2.4901409,1.270163 3.0211254,0.85317375 3.5741284,0.48623313 4.0127485,0.19468551 4.4929607,0.0034151177 4.9962461,4.5249524E-05z" />
  </g>
</svg>