<?xml version="1.0" encoding="utf-8"?>
<svg xmlns="http://www.w3.org/2000/svg" height="48" width="48" viewBox="0 0 48 48">
  <g>
    <path id="path1" transform="rotate(0,24,24) translate(11,15.9562503099442) scale(0.8125,0.8125)  " fill="#FFFFFF" d="M4.2999878,0L9.3999939,0 9.3999939,7.5999799 22.699982,7.5999799 22.699982,0 27.799988,0 27.799988,2.2999893 31,2.2999893 31,6.099979 32,6.099979 32,13.099983 30.899994,13.099983 30.899994,17.500011 27.699982,17.500011 27.699982,19.8 22.600006,19.8 22.600006,12.199988 9.2999878,12.199988 9.2999878,19.8 4.2999878,19.8 4.2999878,17.500011 1.1000061,17.500011 1.1000061,13.099983 0,13.099983 0,6.099979 1.1000061,6.099979 1.1000061,2.2999893 4.2999878,2.2999893z" />
  </g>
</svg>